<?xml version="1.0" encoding="utf-8"?>
<svg version="1.1" xmlns:xlink="http://www.w3.org/1999/xlink" width="30px" height="31px" xmlns="http://www.w3.org/2000/svg">
  <defs>
    <mask fill="white" id="clip515">
      <path d="M 9.99999999999999 17.05  L 9.99999999999999 13.95  L 6.66666666666667 13.95  L 6.66666666666667 17.05  L 9.99999999999999 17.05  Z M 16.6666666666667 17.05  L 16.6666666666667 13.95  L 13.3333333333333 13.95  L 13.3333333333333 17.05  L 16.6666666666667 17.05  Z M 23.3333333333333 17.05  L 23.3333333333333 13.95  L 20 13.95  L 20 17.05  L 23.3333333333333 17.05  Z M 30 6.20000000000001  C 30 4.495  28.5 3.1  26.6666666666667 3.1  L 25 3.1  L 25 0  L 21.6666666666667 0  L 21.6666666666667 3.1  L 8.33333333333333 3.1  L 8.33333333333333 0  L 5 0  L 5 3.1  L 3.33333333333334 3.1  C 1.48333333333334 3.1  0.0166666666666722 4.495  0.0166666666666722 6.20000000000001  L 0 27.9  C 0 29.605  1.48333333333334 31  3.33333333333334 31  L 26.6666666666667 31  C 28.5 31  30 29.605  30 27.9  L 30 6.20000000000001  Z M 26.6666666666667 11  L 26.6666666666667 27.9  L 3.33333333333334 27.9  L 3.33333333333334 11  L 26.6666666666667 11  Z " fill-rule="evenodd" />
    </mask>
  </defs>
  <g transform="matrix(1 0 0 1 -220 -610 )">
    <path d="M 9.99999999999999 17.05  L 9.99999999999999 13.95  L 6.66666666666667 13.95  L 6.66666666666667 17.05  L 9.99999999999999 17.05  Z M 16.6666666666667 17.05  L 16.6666666666667 13.95  L 13.3333333333333 13.95  L 13.3333333333333 17.05  L 16.6666666666667 17.05  Z M 23.3333333333333 17.05  L 23.3333333333333 13.95  L 20 13.95  L 20 17.05  L 23.3333333333333 17.05  Z M 30 6.20000000000001  C 30 4.495  28.5 3.1  26.6666666666667 3.1  L 25 3.1  L 25 0  L 21.6666666666667 0  L 21.6666666666667 3.1  L 8.33333333333333 3.1  L 8.33333333333333 0  L 5 0  L 5 3.1  L 3.33333333333334 3.1  C 1.48333333333334 3.1  0.0166666666666722 4.495  0.0166666666666722 6.20000000000001  L 0 27.9  C 0 29.605  1.48333333333334 31  3.33333333333334 31  L 26.6666666666667 31  C 28.5 31  30 29.605  30 27.9  L 30 6.20000000000001  Z M 26.6666666666667 11  L 26.6666666666667 27.9  L 3.33333333333334 27.9  L 3.33333333333334 11  L 26.6666666666667 11  Z " fill-rule="nonzero" fill="#ffffff" stroke="none" fill-opacity="0" transform="matrix(1 0 0 1 220 610 )" />
    <path d="M 9.99999999999999 17.05  L 9.99999999999999 13.95  L 6.66666666666667 13.95  L 6.66666666666667 17.05  L 9.99999999999999 17.05  Z " stroke-width="4" stroke="#000000" fill="none" transform="matrix(1 0 0 1 220 610 )" mask="url(#clip515)" />
    <path d="M 16.6666666666667 17.05  L 16.6666666666667 13.95  L 13.3333333333333 13.95  L 13.3333333333333 17.05  L 16.6666666666667 17.05  Z " stroke-width="4" stroke="#000000" fill="none" transform="matrix(1 0 0 1 220 610 )" mask="url(#clip515)" />
    <path d="M 23.3333333333333 17.05  L 23.3333333333333 13.95  L 20 13.95  L 20 17.05  L 23.3333333333333 17.05  Z " stroke-width="4" stroke="#000000" fill="none" transform="matrix(1 0 0 1 220 610 )" mask="url(#clip515)" />
    <path d="M 30 6.20000000000001  C 30 4.495  28.5 3.1  26.6666666666667 3.1  L 25 3.1  L 25 0  L 21.6666666666667 0  L 21.6666666666667 3.1  L 8.33333333333333 3.1  L 8.33333333333333 0  L 5 0  L 5 3.1  L 3.33333333333334 3.1  C 1.48333333333334 3.1  0.0166666666666722 4.495  0.0166666666666722 6.20000000000001  L 0 27.9  C 0 29.605  1.48333333333334 31  3.33333333333334 31  L 26.6666666666667 31  C 28.5 31  30 29.605  30 27.9  L 30 6.20000000000001  Z " stroke-width="4" stroke="#000000" fill="none" transform="matrix(1 0 0 1 220 610 )" mask="url(#clip515)" />
    <path d="M 26.6666666666667 11  L 26.6666666666667 27.9  L 3.33333333333334 27.9  L 3.33333333333334 11  L 26.6666666666667 11  Z " stroke-width="4" stroke="#000000" fill="none" transform="matrix(1 0 0 1 220 610 )" mask="url(#clip515)" />
  </g>
</svg>