<?xml version="1.0" encoding="utf-8"?>
<svg version="1.1" xmlns:xlink="http://www.w3.org/1999/xlink" width="26px" height="26px" xmlns="http://www.w3.org/2000/svg">
  <g transform="matrix(1 0 0 1 -333 -30 )">
    <path d="M 26 23.7850200114351  L 18.5820468839337 16.3522012578616  L 17.4002287021155 16.3522012578616  L 16.991423670669 15.9433962264151  C 18.4482561463694 14.2561463693539  19.325328759291 12.0634648370497  19.325328759291 9.66266437964551  C 19.325328759291 4.32590051457976  14.9994282447113 0  9.66266437964551 0  C 4.32590051457976 0  0 4.32590051457976  0 9.66266437964551  C 0 14.9994282447113  4.32590051457976 19.325328759291  9.66266437964551 19.325328759291  C 12.0634648370497 19.325328759291  14.2561463693539 18.4482561463694  15.9433962264151 16.9988564894225  L 16.3522012578616 17.4076615208691  L 16.3522012578616 18.5820468839337  L 23.7850200114351 26  L 26 23.7850200114351  Z M 16.3522012578616 9.66266437964551  C 16.3522012578616 13.3567753001715  13.3567753001715 16.3522012578616  9.66266437964551 16.3522012578616  C 5.9685534591195 16.3522012578616  2.97312750142939 13.3567753001715  2.97312750142939 9.66266437964551  C 2.97312750142939 5.9685534591195  5.9685534591195 2.97312750142939  9.66266437964551 2.97312750142939  C 13.3567753001715 2.97312750142939  16.3522012578616 5.9685534591195  16.3522012578616 9.66266437964551  Z " fill-rule="nonzero" fill="#000000" stroke="none" transform="matrix(1 0 0 1 333 30 )" />
  </g>
</svg>