<?xml version="1.0" encoding="utf-8"?>
<svg version="1.1" xmlns:xlink="http://www.w3.org/1999/xlink" width="30px" height="31px" xmlns="http://www.w3.org/2000/svg">
  <defs>
    <mask fill="white" id="clip512">
      <path d="M 29.7038079236543 19.5765  L 26.4508553974251 17.01125  C 26.5125227438939 16.51525  26.5587732537455 16.0115  26.5587732537455 15.5  C 26.5587732537455 14.9885  26.5125227438939 14.48475  26.4508553974251 13.98875  L 29.7115163419629 11.4235  C 30.0044362376897 11.191  30.0892288390843 10.7725  29.8965183813693 10.4315  L 26.8131510579293 5.06075  C 26.6204406002143 4.7275  26.2196028481672 4.588  25.8727240242802 4.7275  L 22.0339317065974 6.28525  C 21.2399646208116 5.673  20.3689133519398 5.15375  19.4284863182906 4.7585  L 18.8503549451456 0.651  C 18.7809791803682 0.28675  18.4649340297157 0  18.0795131142857 0  L 11.9127784674057 0  C 11.5273575519757 0  11.2113124013231 0.28675  11.1496450548544 0.651  L 10.5715136817094 4.7585  C 9.63108664806017 5.15375  8.76003537918838 5.66525  7.96606829340259 6.28525  L 4.12727597571984 4.7275  C 3.78039715183285 4.59575  3.37955939978565 4.7275  3.18684894207065 5.06075  L 0.103481618630694 10.4315  C -0.0892288390843036 10.76475  -0.00443623768970443 11.18325  0.288483658037092 11.4235  L 3.54143618426625 13.98875  C 3.47976883779745 14.48475  3.43351832794585 14.9885  3.43351832794585 15.5  C 3.43351832794585 16.0115  3.47976883779745 16.51525  3.54143618426625 17.01125  L 0.288483658037092 19.5765  C -0.00443623768970378 19.809  -0.0892288390843029 20.2275  0.103481618630695 20.5685  L 3.18684894207065 25.93925  C 3.37955939978565 26.2725  3.78039715183284 26.412  4.12727597571984 26.2725  L 7.96606829340259 24.71475  C 8.76003537918838 25.327  9.63108664806017 25.84625  10.5715136817094 26.2415  L 11.1496450548544 30.349  C 11.2113124013231 30.71325  11.5273575519757 31  11.9127784674057 31  L 18.0795131142857 31  C 18.4649340297157 31  18.7809791803682 30.71325  18.842646526837 30.349  L 19.420777899982 26.2415  C 20.3612049336312 25.84625  21.232256202503 25.33475  22.0262232882888 24.71475  L 25.8650156059715 26.2725  C 26.2118944298585 26.40425  26.6127321819057 26.2725  26.8054426396207 25.93925  L 29.8888099630607 20.5685  C 30.0815204207757 20.23525  29.9967278193811 19.81675  29.7038079236543 19.5765  Z M 20.3920386068656 15.5  C 20.3920386068656 18.49925  17.9793036762739 20.925  14.9961457908457 20.925  C 12.0129879054175 20.925  9.60025297482577 18.49925  9.60025297482577 15.5  C 9.60025297482577 12.50075  12.0129879054175 10.075  14.9961457908457 10.075  C 17.9793036762739 10.075  20.3920386068656 12.50075  20.3920386068656 15.5  Z " fill-rule="evenodd" />
    </mask>
  </defs>
  <g transform="matrix(1 0 0 1 -295 -610 )">
    <path d="M 29.7038079236543 19.5765  L 26.4508553974251 17.01125  C 26.5125227438939 16.51525  26.5587732537455 16.0115  26.5587732537455 15.5  C 26.5587732537455 14.9885  26.5125227438939 14.48475  26.4508553974251 13.98875  L 29.7115163419629 11.4235  C 30.0044362376897 11.191  30.0892288390843 10.7725  29.8965183813693 10.4315  L 26.8131510579293 5.06075  C 26.6204406002143 4.7275  26.2196028481672 4.588  25.8727240242802 4.7275  L 22.0339317065974 6.28525  C 21.2399646208116 5.673  20.3689133519398 5.15375  19.4284863182906 4.7585  L 18.8503549451456 0.651  C 18.7809791803682 0.28675  18.4649340297157 0  18.0795131142857 0  L 11.9127784674057 0  C 11.5273575519757 0  11.2113124013231 0.28675  11.1496450548544 0.651  L 10.5715136817094 4.7585  C 9.63108664806017 5.15375  8.76003537918838 5.66525  7.96606829340259 6.28525  L 4.12727597571984 4.7275  C 3.78039715183285 4.59575  3.37955939978565 4.7275  3.18684894207065 5.06075  L 0.103481618630694 10.4315  C -0.0892288390843036 10.76475  -0.00443623768970443 11.18325  0.288483658037092 11.4235  L 3.54143618426625 13.98875  C 3.47976883779745 14.48475  3.43351832794585 14.9885  3.43351832794585 15.5  C 3.43351832794585 16.0115  3.47976883779745 16.51525  3.54143618426625 17.01125  L 0.288483658037092 19.5765  C -0.00443623768970378 19.809  -0.0892288390843029 20.2275  0.103481618630695 20.5685  L 3.18684894207065 25.93925  C 3.37955939978565 26.2725  3.78039715183284 26.412  4.12727597571984 26.2725  L 7.96606829340259 24.71475  C 8.76003537918838 25.327  9.63108664806017 25.84625  10.5715136817094 26.2415  L 11.1496450548544 30.349  C 11.2113124013231 30.71325  11.5273575519757 31  11.9127784674057 31  L 18.0795131142857 31  C 18.4649340297157 31  18.7809791803682 30.71325  18.842646526837 30.349  L 19.420777899982 26.2415  C 20.3612049336312 25.84625  21.232256202503 25.33475  22.0262232882888 24.71475  L 25.8650156059715 26.2725  C 26.2118944298585 26.40425  26.6127321819057 26.2725  26.8054426396207 25.93925  L 29.8888099630607 20.5685  C 30.0815204207757 20.23525  29.9967278193811 19.81675  29.7038079236543 19.5765  Z M 20.3920386068656 15.5  C 20.3920386068656 18.49925  17.9793036762739 20.925  14.9961457908457 20.925  C 12.0129879054175 20.925  9.60025297482577 18.49925  9.60025297482577 15.5  C 9.60025297482577 12.50075  12.0129879054175 10.075  14.9961457908457 10.075  C 17.9793036762739 10.075  20.3920386068656 12.50075  20.3920386068656 15.5  Z " fill-rule="nonzero" fill="#ffffff" stroke="none" fill-opacity="0" transform="matrix(1 0 0 1 295 610 )" />
    <path d="M 29.7038079236543 19.5765  L 26.4508553974251 17.01125  C 26.5125227438939 16.51525  26.5587732537455 16.0115  26.5587732537455 15.5  C 26.5587732537455 14.9885  26.5125227438939 14.48475  26.4508553974251 13.98875  L 29.7115163419629 11.4235  C 30.0044362376897 11.191  30.0892288390843 10.7725  29.8965183813693 10.4315  L 26.8131510579293 5.06075  C 26.6204406002143 4.7275  26.2196028481672 4.588  25.8727240242802 4.7275  L 22.0339317065974 6.28525  C 21.2399646208116 5.673  20.3689133519398 5.15375  19.4284863182906 4.7585  L 18.8503549451456 0.651  C 18.7809791803682 0.28675  18.4649340297157 0  18.0795131142857 0  L 11.9127784674057 0  C 11.5273575519757 0  11.2113124013231 0.28675  11.1496450548544 0.651  L 10.5715136817094 4.7585  C 9.63108664806017 5.15375  8.76003537918838 5.66525  7.96606829340259 6.28525  L 4.12727597571984 4.7275  C 3.78039715183285 4.59575  3.37955939978565 4.7275  3.18684894207065 5.06075  L 0.103481618630694 10.4315  C -0.0892288390843036 10.76475  -0.00443623768970443 11.18325  0.288483658037092 11.4235  L 3.54143618426625 13.98875  C 3.47976883779745 14.48475  3.43351832794585 14.9885  3.43351832794585 15.5  C 3.43351832794585 16.0115  3.47976883779745 16.51525  3.54143618426625 17.01125  L 0.288483658037092 19.5765  C -0.00443623768970378 19.809  -0.0892288390843029 20.2275  0.103481618630695 20.5685  L 3.18684894207065 25.93925  C 3.37955939978565 26.2725  3.78039715183284 26.412  4.12727597571984 26.2725  L 7.96606829340259 24.71475  C 8.76003537918838 25.327  9.63108664806017 25.84625  10.5715136817094 26.2415  L 11.1496450548544 30.349  C 11.2113124013231 30.71325  11.5273575519757 31  11.9127784674057 31  L 18.0795131142857 31  C 18.4649340297157 31  18.7809791803682 30.71325  18.842646526837 30.349  L 19.420777899982 26.2415  C 20.3612049336312 25.84625  21.232256202503 25.33475  22.0262232882888 24.71475  L 25.8650156059715 26.2725  C 26.2118944298585 26.40425  26.6127321819057 26.2725  26.8054426396207 25.93925  L 29.8888099630607 20.5685  C 30.0815204207757 20.23525  29.9967278193811 19.81675  29.7038079236543 19.5765  Z " stroke-width="4" stroke="#f59a23" fill="none" transform="matrix(1 0 0 1 295 610 )" mask="url(#clip512)" />
    <path d="M 20.3920386068656 15.5  C 20.3920386068656 18.49925  17.9793036762739 20.925  14.9961457908457 20.925  C 12.0129879054175 20.925  9.60025297482577 18.49925  9.60025297482577 15.5  C 9.60025297482577 12.50075  12.0129879054175 10.075  14.9961457908457 10.075  C 17.9793036762739 10.075  20.3920386068656 12.50075  20.3920386068656 15.5  Z " stroke-width="4" stroke="#f59a23" fill="none" transform="matrix(1 0 0 1 295 610 )" mask="url(#clip512)" />
  </g>
</svg>