<?xml version="1.0" encoding="utf-8"?>
<svg version="1.1" xmlns:xlink="http://www.w3.org/1999/xlink" width="31px" height="31px" xmlns="http://www.w3.org/2000/svg">
  <defs>
    <mask fill="white" id="clip509">
      <path d="M 2.24948717948718 10.3137837837838  L 8.9025641025641 17.3348648648649  L 13.4015384615385 12.5927027027027  L 2.24948717948718 0.837837837837838  C -0.230512820512821 3.45189189189189  -0.230512820512821 7.69972972972973  2.24948717948718 10.3137837837838  Z M 17.3520512820513 16.7567567567568  L 19.6889743589744 14.2935135135135  C 22.1133333333333 15.4916216216216  25.5392307692308 14.6454054054054  28.0669230769231 11.9810810810811  C 31.1112820512821 8.77216216216217  31.6915384615385 4.18918918918919  29.3625641025641 1.73432432432433  C 27.025641025641 -0.720540540540541  22.6697435897436 -0.108918918918919  19.6333333333333 3.1  C 17.105641025641 5.76432432432432  16.3107692307692 9.3754054054054  17.4394871794872 11.9308108108108  C 13.9023076923077 15.6508108108108  1.91564102564102 28.2854054054054  1.91564102564102 28.2854054054054  L 4.1651282051282 30.6564864864865  L 15.1025641025641 19.1278378378378  L 26.04 30.6564864864865  L 28.2894871794872 28.2854054054054  L 17.3520512820513 16.7567567567568  Z " fill-rule="evenodd" />
    </mask>
  </defs>
  <g transform="matrix(1 0 0 1 -143 -610 )">
    <path d="M 2.24948717948718 10.3137837837838  L 8.9025641025641 17.3348648648649  L 13.4015384615385 12.5927027027027  L 2.24948717948718 0.837837837837838  C -0.230512820512821 3.45189189189189  -0.230512820512821 7.69972972972973  2.24948717948718 10.3137837837838  Z M 17.3520512820513 16.7567567567568  L 19.6889743589744 14.2935135135135  C 22.1133333333333 15.4916216216216  25.5392307692308 14.6454054054054  28.0669230769231 11.9810810810811  C 31.1112820512821 8.77216216216217  31.6915384615385 4.18918918918919  29.3625641025641 1.73432432432433  C 27.025641025641 -0.720540540540541  22.6697435897436 -0.108918918918919  19.6333333333333 3.1  C 17.105641025641 5.76432432432432  16.3107692307692 9.3754054054054  17.4394871794872 11.9308108108108  C 13.9023076923077 15.6508108108108  1.91564102564102 28.2854054054054  1.91564102564102 28.2854054054054  L 4.1651282051282 30.6564864864865  L 15.1025641025641 19.1278378378378  L 26.04 30.6564864864865  L 28.2894871794872 28.2854054054054  L 17.3520512820513 16.7567567567568  Z " fill-rule="nonzero" fill="#ffffff" stroke="none" fill-opacity="0" transform="matrix(1 0 0 1 143 610 )" />
    <path d="M 2.24948717948718 10.3137837837838  L 8.9025641025641 17.3348648648649  L 13.4015384615385 12.5927027027027  L 2.24948717948718 0.837837837837838  C -0.230512820512821 3.45189189189189  -0.230512820512821 7.69972972972973  2.24948717948718 10.3137837837838  Z " stroke-width="4" stroke="#000000" fill="none" transform="matrix(1 0 0 1 143 610 )" mask="url(#clip509)" />
    <path d="M 17.3520512820513 16.7567567567568  L 19.6889743589744 14.2935135135135  C 22.1133333333333 15.4916216216216  25.5392307692308 14.6454054054054  28.0669230769231 11.9810810810811  C 31.1112820512821 8.77216216216217  31.6915384615385 4.18918918918919  29.3625641025641 1.73432432432433  C 27.025641025641 -0.720540540540541  22.6697435897436 -0.108918918918919  19.6333333333333 3.1  C 17.105641025641 5.76432432432432  16.3107692307692 9.3754054054054  17.4394871794872 11.9308108108108  C 13.9023076923077 15.6508108108108  1.91564102564102 28.2854054054054  1.91564102564102 28.2854054054054  L 4.1651282051282 30.6564864864865  L 15.1025641025641 19.1278378378378  L 26.04 30.6564864864865  L 28.2894871794872 28.2854054054054  L 17.3520512820513 16.7567567567568  Z " stroke-width="4" stroke="#000000" fill="none" transform="matrix(1 0 0 1 143 610 )" mask="url(#clip509)" />
  </g>
</svg>