<?xml version="1.0" encoding="utf-8"?>
<svg version="1.1" xmlns:xlink="http://www.w3.org/1999/xlink" width="19px" height="20px" xmlns="http://www.w3.org/2000/svg">
  <defs>
    <mask fill="white" id="clip517">
      <path d="M 6.33333333333333 11  L 6.33333333333333 9  L 4.22222222222223 9  L 4.22222222222223 11  L 6.33333333333333 11  Z M 10.5555555555556 11  L 10.5555555555556 9  L 8.44444444444444 9  L 8.44444444444444 11  L 10.5555555555556 11  Z M 14.7777777777778 11  L 14.7777777777778 9  L 12.6666666666667 9  L 12.6666666666667 11  L 14.7777777777778 11  Z M 19 4  C 19 2.9  18.05 2  16.8888888888889 2  L 15.8333333333333 2  L 15.8333333333333 0  L 13.7222222222222 0  L 13.7222222222222 2  L 5.27777777777778 2  L 5.27777777777778 0  L 3.16666666666666 0  L 3.16666666666666 2  L 2.11111111111111 2  C 0.939444444444449 2  0.0105555555555591 2.9  0.0105555555555591 4  L 0 18  C 0 19.1  0.939444444444449 20  2.11111111111111 20  L 16.8888888888889 20  C 18.05 20  19 19.1  19 18  L 19 4  Z M 16.8888888888889 7  L 16.8888888888889 18  L 2.11111111111111 18  L 2.11111111111111 7  L 16.8888888888889 7  Z " fill-rule="evenodd" />
    </mask>
  </defs>
  <g transform="matrix(1 0 0 1 -133 -21 )">
    <path d="M 6.33333333333333 11  L 6.33333333333333 9  L 4.22222222222223 9  L 4.22222222222223 11  L 6.33333333333333 11  Z M 10.5555555555556 11  L 10.5555555555556 9  L 8.44444444444444 9  L 8.44444444444444 11  L 10.5555555555556 11  Z M 14.7777777777778 11  L 14.7777777777778 9  L 12.6666666666667 9  L 12.6666666666667 11  L 14.7777777777778 11  Z M 19 4  C 19 2.9  18.05 2  16.8888888888889 2  L 15.8333333333333 2  L 15.8333333333333 0  L 13.7222222222222 0  L 13.7222222222222 2  L 5.27777777777778 2  L 5.27777777777778 0  L 3.16666666666666 0  L 3.16666666666666 2  L 2.11111111111111 2  C 0.939444444444449 2  0.0105555555555591 2.9  0.0105555555555591 4  L 0 18  C 0 19.1  0.939444444444449 20  2.11111111111111 20  L 16.8888888888889 20  C 18.05 20  19 19.1  19 18  L 19 4  Z M 16.8888888888889 7  L 16.8888888888889 18  L 2.11111111111111 18  L 2.11111111111111 7  L 16.8888888888889 7  Z " fill-rule="nonzero" fill="#ffffff" stroke="none" fill-opacity="0" transform="matrix(1 0 0 1 133 21 )" />
    <path d="M 6.33333333333333 11  L 6.33333333333333 9  L 4.22222222222223 9  L 4.22222222222223 11  L 6.33333333333333 11  Z " stroke-width="4" stroke="#f59a23" fill="none" transform="matrix(1 0 0 1 133 21 )" mask="url(#clip517)" />
    <path d="M 10.5555555555556 11  L 10.5555555555556 9  L 8.44444444444444 9  L 8.44444444444444 11  L 10.5555555555556 11  Z " stroke-width="4" stroke="#f59a23" fill="none" transform="matrix(1 0 0 1 133 21 )" mask="url(#clip517)" />
    <path d="M 14.7777777777778 11  L 14.7777777777778 9  L 12.6666666666667 9  L 12.6666666666667 11  L 14.7777777777778 11  Z " stroke-width="4" stroke="#f59a23" fill="none" transform="matrix(1 0 0 1 133 21 )" mask="url(#clip517)" />
    <path d="M 19 4  C 19 2.9  18.05 2  16.8888888888889 2  L 15.8333333333333 2  L 15.8333333333333 0  L 13.7222222222222 0  L 13.7222222222222 2  L 5.27777777777778 2  L 5.27777777777778 0  L 3.16666666666666 0  L 3.16666666666666 2  L 2.11111111111111 2  C 0.939444444444449 2  0.0105555555555591 2.9  0.0105555555555591 4  L 0 18  C 0 19.1  0.939444444444449 20  2.11111111111111 20  L 16.8888888888889 20  C 18.05 20  19 19.1  19 18  L 19 4  Z " stroke-width="4" stroke="#f59a23" fill="none" transform="matrix(1 0 0 1 133 21 )" mask="url(#clip517)" />
    <path d="M 16.8888888888889 7  L 16.8888888888889 18  L 2.11111111111111 18  L 2.11111111111111 7  L 16.8888888888889 7  Z " stroke-width="4" stroke="#f59a23" fill="none" transform="matrix(1 0 0 1 133 21 )" mask="url(#clip517)" />
  </g>
</svg>